<?xml version="1.0" encoding="iso-8859-1"?>
<!-- Generator: Adobe Illustrator 19.0.0, SVG Export Plug-In . SVG Version: 6.00 Build 0)  -->
<svg version="1.1" id="Capa_1" xmlns="http://www.w3.org/2000/svg" xmlns:xlink="http://www.w3.org/1999/xlink" x="0px" y="0px"
	 viewBox="0 0 512 512" style="enable-background:new 0 0 512 512;" xml:space="preserve">
<g>
	<g>
		<path d="M416,342H96c-24.8,0-45,20.2-45,45v80c0,24.8,20.2,45,45,45h320c24.8,0,45-20.2,45-45v-80C461,362.2,440.8,342,416,342z"
			/>
	</g>
</g>
<g>
	<g>
		<path d="M410.2,312l-24-95.9c-5-20.1-23-34.1-43.7-34.1H169.4c-20.7,0-38.6,14-43.7,34.1l-24,95.9H211v-26c0-24.8,20.2-45,45-45
			s45,20.2,45,45v26H410.2z"/>
	</g>
</g>
<g>
	<g>
		<path d="M256,0c-8.3,0-15,6.7-15,15v90c0,8.3,6.7,15,15,15s15-6.7,15-15V15C271,6.7,264.3,0,256,0z"/>
	</g>
</g>
<g>
	<g>
		<path d="M168.5,99.5l-77.9-45c-7.2-4.1-16.4-1.7-20.5,5.5c-4.1,7.2-1.7,16.4,5.5,20.5l77.9,45c7.1,4.1,16.3,1.7,20.5-5.5
			C178.1,112.8,175.7,103.6,168.5,99.5z"/>
	</g>
</g>
<g>
	<g>
		<path d="M441.9,60c-4.2-7.2-13.3-9.6-20.5-5.5l-77.9,45c-7.2,4.2-9.6,13.3-5.5,20.5c4.2,7.2,13.4,9.6,20.5,5.5l77.9-45
			C443.6,76.3,446.1,67.2,441.9,60z"/>
	</g>
</g>
<g>
</g>
<g>
</g>
<g>
</g>
<g>
</g>
<g>
</g>
<g>
</g>
<g>
</g>
<g>
</g>
<g>
</g>
<g>
</g>
<g>
</g>
<g>
</g>
<g>
</g>
<g>
</g>
<g>
</g>
</svg>
