<?xml version="1.0" encoding="utf-8"?>
<!-- Generator: Adobe Illustrator 26.0.2, SVG Export Plug-In . SVG Version: 6.00 Build 0)  -->
<svg version="1.1" id="Layer_1" xmlns="http://www.w3.org/2000/svg" xmlns:xlink="http://www.w3.org/1999/xlink" x="0px" y="0px"
	 viewBox="0 0 900 900" style="enable-background:new 0 0 900 900;" xml:space="preserve">
<style type="text/css">
	.st0{filter:url(#Adobe_OpacityMaskFilter);}
	.st1{opacity:0.43;mask:url(#SVGID_1_);fill:url(#SVGID_00000052815463965907424070000011508616598224798873_);}
	.st2{fill:url(#SVGID_00000160191092046943093490000006679703534749179782_);}
	.st3{filter:url(#Adobe_OpacityMaskFilter_00000022532811861066477920000009130173925275231899_);}
	.st4{filter:url(#Adobe_OpacityMaskFilter_00000155131875906116202730000007177996167491160760_);}
	
		.st5{mask:url(#SVGID_00000109739409948178572160000015618112245363340981_);fill:url(#SVGID_00000108300469967715400690000005233433747871419539_);}
	.st6{opacity:0.43;fill:url(#SVGID_00000083087050846219348360000005535841854586249349_);}
	.st7{fill:#FFFFFF;}
</style>
<g>
	<g>
		<defs>
			<filter id="Adobe_OpacityMaskFilter" filterUnits="userSpaceOnUse" x="403.44" y="152.7" width="494.24" height="633.3">
				<feFlood  style="flood-color:white;flood-opacity:1" result="back"/>
				<feBlend  in="SourceGraphic" in2="back" mode="normal"/>
			</filter>
		</defs>
		<mask maskUnits="userSpaceOnUse" x="403.44" y="152.7" width="494.24" height="633.3" id="SVGID_1_">
			<g class="st0">
			</g>
		</mask>
		
			<linearGradient id="SVGID_00000038381359447743800160000006920225866424719032_" gradientUnits="userSpaceOnUse" x1="403.4366" y1="469.3524" x2="897.6795" y2="469.3524">
			<stop  offset="0" style="stop-color:#45D0F1"/>
			<stop  offset="1" style="stop-color:#005BB3"/>
		</linearGradient>
		<path style="opacity:0.43;mask:url(#SVGID_1_);fill:url(#SVGID_00000038381359447743800160000006920225866424719032_);" d="
			M815.05,556.05c-93.14,96.94-191.27,327.76-293.19,184.03c-50.37-65.33-94.02-192.39-110.68-282.46
			c-17.04-94.99-7.09-152.99,40.88-193.49c96.46-76.74,282.65-188.42,380.59-34.18c50.1,72.88,69.85,153.65,64.04,201.34
			C891.17,483.48,860.08,502.58,815.05,556.05z"/>
		
			<linearGradient id="SVGID_00000075850275603398811930000006305291206560866193_" gradientUnits="userSpaceOnUse" x1="4.8553" y1="440.5833" x2="837.6378" y2="440.5833">
			<stop  offset="0" style="stop-color:#45D0F1"/>
			<stop  offset="1" style="stop-color:#005BB3"/>
		</linearGradient>
		<path style="fill:url(#SVGID_00000075850275603398811930000006305291206560866193_);" d="M393.85,115.99
			c130.49,3.68,248.24,51.14,327.53,108.03c79.98,57.93,121.49,125.31,115.73,192.53c-5.81,67.87-56.45,128.02-126.08,185.58
			c-70.25,56.52-159.47,110.45-256.47,141.65C265.99,810.42,77.87,723.97,17.23,513.69C-43.72,304.67,126.62,102.16,393.85,115.99z"
			/>
		<defs>
			
				<filter id="Adobe_OpacityMaskFilter_00000114753179965934911590000010040994811452144527_" filterUnits="userSpaceOnUse" x="9.71" y="61" width="625.94" height="625.8">
				<feFlood  style="flood-color:white;flood-opacity:1" result="back"/>
				<feBlend  in="SourceGraphic" in2="back" mode="normal"/>
			</filter>
		</defs>
		
			<mask maskUnits="userSpaceOnUse" x="9.71" y="61" width="625.94" height="625.8" id="SVGID_00000016048958238582923630000014550298149820131463_">
			<g style="filter:url(#Adobe_OpacityMaskFilter_00000114753179965934911590000010040994811452144527_);">
				<defs>
					
						<filter id="Adobe_OpacityMaskFilter_00000016786547416489581130000017846369793423223727_" filterUnits="userSpaceOnUse" x="9.71" y="61" width="625.94" height="625.8">
						<feFlood  style="flood-color:white;flood-opacity:1" result="back"/>
						<feBlend  in="SourceGraphic" in2="back" mode="normal"/>
					</filter>
				</defs>
				
					<mask maskUnits="userSpaceOnUse" x="9.71" y="61" width="625.94" height="625.8" id="SVGID_00000016048958238582923630000014550298149820131463_">
					<g style="filter:url(#Adobe_OpacityMaskFilter_00000016786547416489581130000017846369793423223727_);">
					</g>
				</mask>
				
					<linearGradient id="SVGID_00000083787667283244251340000008370754396641818794_" gradientUnits="userSpaceOnUse" x1="-7369.4209" y1="2879.1528" x2="-6772.6357" y2="2879.1528" gradientTransform="matrix(-0.8926 -0.4508 0.4508 -0.8926 -7319.0518 -274.6305)">
					<stop  offset="0" style="stop-color:#000000"/>
					<stop  offset="1" style="stop-color:#FFFFFF"/>
				</linearGradient>
				
					<path style="mask:url(#SVGID_00000016048958238582923630000014550298149820131463_);fill:url(#SVGID_00000083787667283244251340000008370754396641818794_);" d="
					M18.01,228.85C41.07,142.82,130.35,78.15,234.35,64.86c103.74-15.97,222.19,19.44,297.62,71.57
					c158.33,107.68,108.56,189.7,27.25,325.65c-85.44,131.48-170.99,273.4-277.55,208.44c-52.5-32.03-124.29-104.3-184.84-184.44
					C37.7,405-10.16,316.03,18.01,228.85z"/>
			</g>
		</mask>
		
			<linearGradient id="SVGID_00000170246397793361393700000003569344499649839295_" gradientUnits="userSpaceOnUse" x1="9.7082" y1="373.8983" x2="635.6527" y2="373.8983">
			<stop  offset="0" style="stop-color:#45D0F1"/>
			<stop  offset="1" style="stop-color:#005BB3"/>
		</linearGradient>
		<path style="opacity:0.43;fill:url(#SVGID_00000170246397793361393700000003569344499649839295_);" d="M18.01,228.85
			C41.07,142.82,130.35,78.15,234.35,64.86c103.74-15.97,222.19,19.44,297.62,71.57c158.33,107.68,108.56,189.7,27.25,325.65
			c-85.44,131.48-170.99,273.4-277.55,208.44c-52.5-32.03-124.29-104.3-184.84-184.44C37.7,405-10.16,316.03,18.01,228.85z"/>
	</g>
	<g>
		<path class="st7" d="M133.57,503.03V393.89v-0.34c0-8.06,1.01-16.45,3.02-24.18c2.69-11.75,8.73-22.83,16.79-31.23v-0.34
			c8.4-8.06,19.48-13.77,31.23-16.45c7.72-2.01,16.12-3.02,24.18-3.02h0.34h35.22c9.07,0,16.79,7.72,16.79,16.79
			c0,9.07-7.72,16.79-16.79,16.79h-35.22h-0.34c-5.71,0-10.41,0.34-15.78,1.68c-6.04,1.34-11.75,4.37-16.12,8.4
			c-4.03,4.37-6.72,9.74-8.06,15.78c-1.34,5.37-1.68,10.07-1.68,15.78v0.34v8.4h68.8c9.07,0,16.45,7.72,16.45,16.79
			c0,9.07-7.39,16.79-16.45,16.79h-68.8v67.16c0,9.07-7.72,16.79-16.79,16.79S133.57,512.1,133.57,503.03z"/>
		<path class="st7" d="M305.58,335.13v167.9c0,9.07-7.72,16.79-16.79,16.79c-9.07,0-16.79-7.72-16.79-16.79v-167.9
			c0-9.07,7.72-16.79,16.79-16.79C297.86,318.34,305.58,326.06,305.58,335.13z"/>
		<path class="st7" d="M467.83,420.08c2.01,7.72,2.69,15.78,2.69,24.18s-0.67,16.79-2.69,24.51c-2.69,11.75-8.73,22.83-16.79,31.23
			l-0.34,0.34c-8.39,8.06-19.48,14.1-31.23,16.79c-7.72,2.01-15.78,2.69-24.18,2.69c-8.4,0-16.79-0.67-24.51-2.69
			c-11.75-2.69-22.84-8.73-31.23-16.79l-0.34-0.34c-8.06-8.4-14.1-19.48-16.79-31.23c-2.01-7.72-3.02-16.12-3.02-24.51
			s1.01-16.45,3.02-24.18c2.69-11.75,8.73-23.17,16.79-31.57h0.34c8.39-8.06,19.48-14.1,31.23-16.79
			c7.72-2.01,15.78-3.02,24.18-3.02s16.79,1.01,24.51,3.02c11.75,2.69,22.84,8.73,31.23,16.79h0.34
			C459.1,396.91,465.15,408.33,467.83,420.08z M436.94,444.26c0-5.71-0.67-10.75-2.01-16.12c-1.34-6.04-3.69-11.75-7.72-16.12
			c-4.37-4.03-9.74-6.38-15.78-7.72c-5.37-1.34-10.75-2.01-16.45-2.01c-5.71,0-10.75,0.67-16.12,2.01
			c-6.04,1.34-11.42,3.69-15.78,7.72c-4.03,4.37-6.72,10.07-8.06,16.12c-1.34,5.37-2.01,10.41-2.01,16.12
			c0,5.71,0.67,11.08,2.01,16.45c1.34,6.04,4.03,11.42,8.06,15.78c4.37,4.03,9.74,6.38,15.78,7.72c5.37,1.34,10.41,2.01,16.12,2.01
			c5.71,0,11.08-0.67,16.45-2.01c6.04-1.34,11.42-3.69,15.78-7.72c4.03-4.37,6.38-9.74,7.72-15.78
			C436.27,455.34,436.94,449.97,436.94,444.26z"/>
		<path class="st7" d="M685.58,385.5v58.77v0.34c0,8.06-1.01,16.45-3.02,24.18c-2.69,11.75-8.73,22.83-16.79,31.23l-0.34,0.34
			c-8.4,8.06-19.48,14.1-31.23,16.79c-7.72,2.01-16.12,2.69-24.18,2.69h-0.34h-50.04h-0.34c-8.06,0-16.79-0.67-24.51-2.69
			c-11.75-2.69-22.5-8.73-30.89-16.79l-0.34-0.34c-8.06-8.4-14.1-19.48-16.79-31.23c-2.01-7.72-3.02-16.12-3.02-24.18v-0.34V385.5
			c0-9.07,8.06-16.79,17.13-16.79c9.07,0,16.79,7.72,16.79,16.79v58.77v0.34c0,5.71,0.67,10.75,2.01,16.12
			c1.34,6.04,3.69,11.42,7.72,15.78c4.37,4.03,9.74,6.38,15.78,7.72c5.37,1.34,10.41,2.01,16.12,2.01h0.34h8.06V385.5
			c0-9.07,8.06-16.79,17.13-16.79c9.07,0,16.79,7.72,16.79,16.79v100.74h8.06h0.34c5.71,0,10.75-0.67,16.12-2.01
			c6.04-1.34,11.42-3.69,15.78-7.72c4.03-4.37,6.38-9.74,7.72-15.78c1.34-5.37,2.01-10.41,2.01-16.12v-0.34V385.5
			c0-9.07,8.06-16.79,17.13-16.79S685.58,376.43,685.58,385.5z"/>
	</g>
</g>
</svg>
