<?xml version="1.0" encoding="utf-8"?>
<!-- Generator: Adobe Illustrator 26.0.2, SVG Export Plug-In . SVG Version: 6.00 Build 0)  -->
<svg version="1.1" id="Layer_1" xmlns="http://www.w3.org/2000/svg" xmlns:xlink="http://www.w3.org/1999/xlink" x="0px" y="0px"
	 viewBox="0 0 900 900" style="enable-background:new 0 0 900 900;" xml:space="preserve">
<style type="text/css">
	.st0{filter:url(#Adobe_OpacityMaskFilter);}
	.st1{opacity:0.45;mask:url(#SVGID_1_);fill:#FFFFFF;}
	.st2{fill:#FFFFFF;}
	.st3{filter:url(#Adobe_OpacityMaskFilter_00000088130785480097687970000012028839386253265854_);}
	.st4{filter:url(#Adobe_OpacityMaskFilter_00000008146613560269672390000002759224428888651450_);}
	
		.st5{mask:url(#SVGID_00000011025171432281502100000010338456031220169601_);fill:url(#SVGID_00000147186731717912301290000012950977388005703336_);}
	.st6{opacity:0.45;fill:#FFFFFF;}
	.st7{fill:#005BB3;}
</style>
<g>
	<defs>
		<filter id="Adobe_OpacityMaskFilter" filterUnits="userSpaceOnUse" x="401.9" y="173.56" width="493.79" height="632.71">
			<feFlood  style="flood-color:white;flood-opacity:1" result="back"/>
			<feBlend  in="SourceGraphic" in2="back" mode="normal"/>
		</filter>
	</defs>
	<mask maskUnits="userSpaceOnUse" x="401.9" y="173.56" width="493.79" height="632.71" id="SVGID_1_">
		<g class="st0">
		</g>
	</mask>
	<path class="st1" d="M813.14,576.53c-93.06,96.85-191.09,327.45-292.92,183.86c-50.33-65.27-93.93-192.22-110.57-282.2
		c-17.03-94.9-7.08-152.85,40.84-193.31c96.37-76.67,282.39-188.24,380.24-34.15c50.05,72.81,69.79,153.51,63.98,201.15
		C889.19,504.02,858.12,523.1,813.14,576.53z"/>
	<path class="st2" d="M392.32,136.87c130.37,3.67,248.01,51.09,327.23,107.94C799.46,302.69,840.93,370,835.17,437.16
		c-5.8,67.81-56.4,127.9-125.97,185.41c-70.18,56.47-159.32,110.35-256.23,141.52C264.58,830.66,76.64,744.3,16.05,534.21
		C-44.84,325.38,125.35,123.06,392.32,136.87z"/>
	<defs>
		
			<filter id="Adobe_OpacityMaskFilter_00000107575084351037931080000013009812403090857115_" filterUnits="userSpaceOnUse" x="8.54" y="81.94" width="625.37" height="625.22">
			<feFlood  style="flood-color:white;flood-opacity:1" result="back"/>
			<feBlend  in="SourceGraphic" in2="back" mode="normal"/>
		</filter>
	</defs>
	
		<mask maskUnits="userSpaceOnUse" x="8.54" y="81.94" width="625.37" height="625.22" id="SVGID_00000129906855903954726770000008345598264793318275_">
		<g style="filter:url(#Adobe_OpacityMaskFilter_00000107575084351037931080000013009812403090857115_);">
			<defs>
				
					<filter id="Adobe_OpacityMaskFilter_00000179625756806648059760000010385386606627938478_" filterUnits="userSpaceOnUse" x="8.54" y="81.94" width="625.37" height="625.22">
					<feFlood  style="flood-color:white;flood-opacity:1" result="back"/>
					<feBlend  in="SourceGraphic" in2="back" mode="normal"/>
				</filter>
			</defs>
			
				<mask maskUnits="userSpaceOnUse" x="8.54" y="81.94" width="625.37" height="625.22" id="SVGID_00000129906855903954726770000008345598264793318275_">
				<g style="filter:url(#Adobe_OpacityMaskFilter_00000179625756806648059760000010385386606627938478_);">
				</g>
			</mask>
			
				<linearGradient id="SVGID_00000048466707321163435220000012592337490185833397_" gradientUnits="userSpaceOnUse" x1="-7377.1899" y1="2860.051" x2="-6780.9556" y2="2860.051" gradientTransform="matrix(-0.8926 -0.4508 0.4508 -0.8926 -7319.0518 -274.6305)">
				<stop  offset="0" style="stop-color:#000000"/>
				<stop  offset="1" style="stop-color:#FFFFFF"/>
			</linearGradient>
			
				<path style="mask:url(#SVGID_00000129906855903954726770000008345598264793318275_);fill:url(#SVGID_00000048466707321163435220000012592337490185833397_);" d="
				M16.83,249.63C39.87,163.68,129.07,99.07,232.97,85.8c103.65-15.96,221.99,19.42,297.34,71.51
				c158.18,107.58,108.46,189.52,27.23,325.35c-85.36,131.35-170.83,273.15-277.29,208.25c-52.45-32-124.18-104.2-184.67-184.26
				C36.51,425.62-11.32,336.73,16.83,249.63z"/>
		</g>
	</mask>
	<path class="st6" d="M16.83,249.63C39.87,163.68,129.07,99.07,232.97,85.8c103.65-15.96,221.99,19.42,297.34,71.51
		c158.18,107.58,108.46,189.52,27.23,325.35c-85.36,131.35-170.83,273.15-277.29,208.25c-52.45-32-124.18-104.2-184.67-184.26
		C36.51,425.62-11.32,336.73,16.83,249.63z"/>
	<g>
		<path class="st7" d="M132.29,523.56V414.52v-0.34c0-8.05,1.01-16.44,3.02-24.16c2.68-11.74,8.72-22.81,16.77-31.2v-0.34
			c8.39-8.05,19.46-13.76,31.2-16.44c7.72-2.01,16.1-3.02,24.16-3.02h0.34h35.18c9.06,0,16.77,7.72,16.77,16.77
			s-7.72,16.77-16.77,16.77h-35.18h-0.34c-5.7,0-10.4,0.34-15.77,1.68c-6.04,1.34-11.74,4.36-16.1,8.39
			c-4.03,4.36-6.71,9.73-8.05,15.77c-1.34,5.37-1.68,10.06-1.68,15.77v0.34v8.39h68.73c9.06,0,16.44,7.72,16.44,16.77
			c0,9.06-7.38,16.77-16.44,16.77h-68.73v67.1c0,9.06-7.72,16.78-16.77,16.78C140,540.33,132.29,532.62,132.29,523.56z"/>
		<path class="st7" d="M304.13,355.81v167.75c0,9.06-7.72,16.78-16.77,16.78s-16.78-7.72-16.78-16.78V355.81
			c0-9.06,7.72-16.77,16.78-16.77S304.13,346.75,304.13,355.81z"/>
		<path class="st7" d="M466.24,440.69c2.01,7.72,2.68,15.77,2.68,24.16s-0.67,16.77-2.68,24.49c-2.68,11.74-8.72,22.81-16.77,31.2
			l-0.34,0.34c-8.39,8.05-19.46,14.09-31.2,16.78c-7.72,2.01-15.77,2.68-24.16,2.68c-8.39,0-16.78-0.67-24.49-2.68
			c-11.74-2.68-22.81-8.72-31.2-16.78l-0.34-0.34c-8.05-8.39-14.09-19.46-16.77-31.2c-2.01-7.72-3.02-16.1-3.02-24.49
			s1.01-16.44,3.02-24.16c2.68-11.74,8.72-23.15,16.77-31.54h0.34c8.39-8.05,19.46-14.09,31.2-16.77
			c7.72-2.01,15.77-3.02,24.16-3.02c8.39,0,16.77,1.01,24.49,3.02c11.74,2.68,22.81,8.72,31.2,16.77h0.34
			C457.52,417.54,463.56,428.95,466.24,440.69z M435.37,464.85c0-5.7-0.67-10.74-2.01-16.1c-1.34-6.04-3.69-11.74-7.72-16.1
			c-4.36-4.03-9.73-6.37-15.77-7.72c-5.37-1.34-10.74-2.01-16.44-2.01c-5.7,0-10.74,0.67-16.1,2.01
			c-6.04,1.34-11.41,3.69-15.77,7.72c-4.03,4.36-6.71,10.06-8.05,16.1c-1.34,5.37-2.01,10.4-2.01,16.1s0.67,11.07,2.01,16.44
			c1.34,6.04,4.03,11.41,8.05,15.77c4.36,4.03,9.73,6.37,15.77,7.72c5.37,1.34,10.4,2.01,16.1,2.01c5.7,0,11.07-0.67,16.44-2.01
			c6.04-1.34,11.41-3.69,15.77-7.72c4.03-4.36,6.37-9.73,7.72-15.77C434.7,475.92,435.37,470.55,435.37,464.85z"/>
		<path class="st7" d="M683.79,406.13v58.71v0.34c0,8.05-1.01,16.44-3.02,24.16c-2.68,11.74-8.72,22.81-16.78,31.2l-0.33,0.34
			c-8.39,8.05-19.46,14.09-31.2,16.78c-7.72,2.01-16.1,2.68-24.16,2.68h-0.34h-49.99h-0.34c-8.05,0-16.78-0.67-24.49-2.68
			c-11.74-2.68-22.48-8.72-30.87-16.78l-0.34-0.34c-8.05-8.39-14.09-19.46-16.78-31.2c-2.01-7.72-3.02-16.1-3.02-24.16v-0.34v-58.71
			c0-9.06,8.05-16.78,17.11-16.78c9.06,0,16.77,7.72,16.77,16.78v58.71v0.34c0,5.7,0.67,10.74,2.01,16.1
			c1.34,6.04,3.69,11.41,7.72,15.77c4.36,4.03,9.73,6.37,15.77,7.72c5.37,1.34,10.4,2.01,16.1,2.01h0.34h8.05V406.13
			c0-9.06,8.05-16.78,17.11-16.78c9.06,0,16.77,7.72,16.77,16.78v100.65h8.05h0.34c5.7,0,10.74-0.67,16.1-2.01
			c6.04-1.34,11.41-3.69,15.77-7.72c4.03-4.36,6.37-9.73,7.72-15.77c1.34-5.37,2.01-10.4,2.01-16.1v-0.34v-58.71
			c0-9.06,8.05-16.78,17.11-16.78C676.07,389.36,683.79,397.08,683.79,406.13z"/>
	</g>
</g>
</svg>
