<?xml version="1.0" encoding="utf-8"?>
<!-- Generator: Adobe Illustrator 26.0.2, SVG Export Plug-In . SVG Version: 6.00 Build 0)  -->
<svg version="1.1" id="Layer_1" xmlns="http://www.w3.org/2000/svg" xmlns:xlink="http://www.w3.org/1999/xlink" x="0px" y="0px"
	 viewBox="0 0 437 171" style="enable-background:new 0 0 437 171;" xml:space="preserve">
<style type="text/css">
	.st0{fill:#FFFFFF;}
</style>
<g>
	<path class="st0" d="M3.14,147.89V63.74v-0.26c0-6.21,0.78-12.69,2.33-18.64c2.07-9.06,6.73-17.61,12.95-24.08V20.5
		C24.89,14.29,33.44,9.88,42.5,7.81c5.96-1.55,12.43-2.33,18.64-2.33h0.26h27.15c6.99,0,12.95,5.96,12.95,12.95
		s-5.96,12.95-12.95,12.95H61.4h-0.26c-4.4,0-8.03,0.26-12.17,1.29c-4.66,1.04-9.06,3.37-12.43,6.47
		c-3.11,3.37-5.18,7.51-6.21,12.17c-1.04,4.14-1.29,7.77-1.29,12.17v0.26v6.47h53.05c6.99,0,12.69,5.96,12.69,12.95
		s-5.7,12.95-12.69,12.95H29.04v51.79c0,6.99-5.96,12.95-12.95,12.95S3.14,154.88,3.14,147.89z"/>
	<path class="st0" d="M135.77,18.43v129.46c0,6.99-5.96,12.95-12.95,12.95s-12.95-5.96-12.95-12.95V18.43
		c0-6.99,5.96-12.95,12.95-12.95S135.77,11.44,135.77,18.43z"/>
	<path class="st0" d="M260.88,83.94c1.55,5.96,2.07,12.17,2.07,18.64s-0.52,12.95-2.07,18.9c-2.07,9.06-6.73,17.61-12.95,24.08
		l-0.26,0.26c-6.47,6.21-15.02,10.88-24.08,12.95c-5.96,1.55-12.17,2.07-18.64,2.07c-6.47,0-12.95-0.52-18.9-2.07
		c-9.06-2.07-17.61-6.73-24.08-12.95l-0.26-0.26c-6.21-6.47-10.87-15.02-12.95-24.08c-1.55-5.96-2.33-12.43-2.33-18.9
		s0.78-12.69,2.33-18.64c2.07-9.06,6.73-17.87,12.95-24.34h0.26c6.47-6.21,15.02-10.87,24.08-12.95c5.96-1.55,12.17-2.33,18.64-2.33
		c6.47,0,12.95,0.78,18.9,2.33c9.06,2.07,17.61,6.73,24.08,12.95h0.26C254.15,66.07,258.81,74.87,260.88,83.94z M237.06,102.58
		c0-4.4-0.52-8.29-1.55-12.43c-1.04-4.66-2.85-9.06-5.96-12.43c-3.37-3.11-7.51-4.92-12.17-5.96c-4.14-1.04-8.29-1.55-12.69-1.55
		s-8.29,0.52-12.43,1.55c-4.66,1.04-8.8,2.85-12.17,5.96c-3.11,3.37-5.18,7.77-6.21,12.43c-1.04,4.14-1.55,8.03-1.55,12.43
		s0.52,8.54,1.55,12.69c1.04,4.66,3.11,8.8,6.21,12.17c3.37,3.11,7.51,4.92,12.17,5.96c4.14,1.04,8.03,1.55,12.43,1.55
		s8.54-0.52,12.69-1.55c4.66-1.04,8.8-2.85,12.17-5.96c3.11-3.37,4.92-7.51,5.96-12.17C236.54,111.12,237.06,106.98,237.06,102.58z"
		/>
	<path class="st0" d="M428.78,57.27v45.31v0.26c0,6.21-0.78,12.69-2.33,18.64c-2.07,9.06-6.73,17.61-12.95,24.08l-0.26,0.26
		c-6.47,6.21-15.02,10.88-24.08,12.95c-5.96,1.55-12.43,2.07-18.64,2.07h-0.26h-38.58h-0.26c-6.21,0-12.95-0.52-18.9-2.07
		c-9.06-2.07-17.35-6.73-23.82-12.95l-0.26-0.26c-6.21-6.47-10.87-15.02-12.95-24.08c-1.55-5.96-2.33-12.43-2.33-18.64v-0.26V57.27
		c0-6.99,6.21-12.95,13.21-12.95c6.99,0,12.95,5.96,12.95,12.95v45.31v0.26c0,4.4,0.52,8.29,1.55,12.43
		c1.04,4.66,2.85,8.8,5.96,12.17c3.37,3.11,7.51,4.92,12.17,5.96c4.14,1.04,8.03,1.55,12.43,1.55h0.26h6.21V57.27
		c0-6.99,6.21-12.95,13.21-12.95c6.99,0,12.95,5.96,12.95,12.95v77.68h6.21h0.26c4.4,0,8.29-0.52,12.43-1.55
		c4.66-1.04,8.8-2.85,12.17-5.96c3.11-3.37,4.92-7.51,5.95-12.17c1.04-4.14,1.55-8.03,1.55-12.43v-0.26V57.27
		c0-6.99,6.21-12.95,13.21-12.95C422.82,44.32,428.78,50.28,428.78,57.27z"/>
</g>
</svg>
